<svg class="shape" xmlns="http://www.w3.org/2000/svg" viewBox="0 0 524.15 450.31"><defs><style>.cls-1{fill:none;}</style></defs><g id="Layer_2" data-name="Layer 2"><g id="Layer_1-2" data-name="Layer 1"><path class="path" d="M19.71,441.56c86.56,22.29,181.71,0,257.28-44.25S411.1,288.72,462.53,221.82c30.66-39.87,60.32-84.3,59.1-132.88C521,62.69,509.89,35.5,486.74,19.69s-55-18-83.75-13.46C326.63,18.36,286.6,69.12,267.82,95c-5.75,7.92-12.76,19-8.22,26,8.38,12.9,49.48,1.58,52.11,9.26.64,1.88-1.16,4.49-22.48,20.36-18,13.37-24.45,17.28-23.5,19.43,2.26,5.09,42.11-8.58,46-1.85,4.83,8.39-50.4,41.37-46,48.12,2.49,3.81,21.56-4.37,24.52,0,4.5,6.65-34.11,33.79-29.63,39.8,2.13,2.85,12.25-1.4,14.31,1.85,1.48,2.36-3,6-10.22,15.73-8.83,11.84-8.48,14.79-12.26,15.74-10.78,2.67-27.86-17.73-24.52-22.22,1.94-2.61,9.8,1.6,13.28-1.85,4.51-4.47-3.12-17.07-5.11-20.36-10.74-17.74-24.53-23.19-22.48-28.69s16.5-2.66,18.39-7.4c3.7-9.28-47.08-31.49-43.93-38.87,2.44-5.72,35,2.9,37.8-3.7,1.52-3.53-6.17-9.74-18-19.32-14.5-11.7-21.77-14.85-20.79-17.7,1.72-5,28.17-5.56,46.28-10.06,1.37-.34,4.22-1.09,5.58-3.31,2.54-4.16-2-10.49-3.74-12.88C175.34,20.06,113.49,6.3,113.49,6.3,90.34,1.15,54.66-6.78,28.68,10.93,1.72,29.31.58,64.84.08,80.34-2.76,168,73.86,346,260.62,415.36c105.93,39.32,206.22,28.4,263.53,16.87"/></g></g></svg>