<svg class="shape" xmlns="http://www.w3.org/2000/svg" viewBox="0 0 124.22 359.04"><defs><style>.cls-1{fill:none;}</style></defs><g id="Layer_2" data-name="Layer 2"><g id="Layer_1-2" data-name="Layer 1"><path class="path" d="M51,15a15.17,15.17,0,0,1-2-9.07,2.17,2.17,0,0,1,.62-1.52A2.83,2.83,0,0,1,52,4.08c12,2,16.41,7.14,16.41,7.14,1.36,1.56,3.74,4.28,2.69,6.32-.69,1.37-2.9,2.42-4.08,1.85a2.29,2.29,0,0,1-1-1.85C65.15,12.45,68.33,7.46,72.44,1c.2-.32.67-1,1.22-1,.7,0,1.15,1.22,1.3,1.64,1.55,4.11-.46,38.52,1.22,52,.83,6.62,2.45,7.3,3.07,7.4,1.4.23,2.86-1.62,3.41-2.31,7-8.95,5.07-36.59-4.37-48-3.46-4.19-6.42-4.38-7.05-4.39a9.19,9.19,0,0,0-5.89,2.44C61.62,11.83,59.28,16,57.4,20.28a78.18,78.18,0,0,0-4.69,14.09c-1.17,5-1.81,10.32-.27,15.27s5.65,9.5,11.19,10.63a2.47,2.47,0,0,0,1.72-.11c.85-.5.69-1.66.41-2.55-3.07-9.52-9.09-18.06-12.55-27.47-1.55-4.18-2.59-8.53-4.53-12.58a9.89,9.89,0,0,0-3.13-4.07,5,5,0,0,0-5.16-.43,4.32,4.32,0,0,0-1.65,4.75A25.36,25.36,0,0,0,41,22.69c1.76,3.67,2.12,7.74,2.76,11.7a51.61,51.61,0,0,0,5.93,17.8,32.76,32.76,0,0,0,14,13.28c2.32,1.11,5,1.93,7.53,1.27s4.49-3.33,3.35-5.47a1.93,1.93,0,0,0-1.75,2A234.18,234.18,0,0,1,77.2,86.45a218.07,218.07,0,0,1,2.06,23.4c.92,19.74,1.24,34.88,1.24,35.92.26,43.3,3.8,48,2.84,75.38-1.37,38.89-8.92,41.6-9.2,74A216.36,216.36,0,0,0,83.34,359c6.18-25.84,4.07-45.32,1-58.31-3.85-16.37-10.47-27.81-13-52.94-1.46-14.75-.43-23.32,0-26.67A99.28,99.28,0,0,1,85.38,183.2c1.83-4.11,4.61-10.23,8.17-17.58,8.62-17.8,14.35-27.48,17.37-33.32,15.76-30.45,15.12-67.41,10.22-68.48-2.7-.6-7.54,9.55-12.26,19.43-16.29,34.14-16.42,58.86-23.5,59.23-3.82.2-8.16-7.17-14.31-17.58-4.31-7.31-4.49-9.77-8.17-12-5.3-3.26-8.51-.36-20.85-1.76-6.32-.71-16.6-1.83-23.35-8.54a44.3,44.3,0,0,1-5-6.42L4.17,82.31c-.59-.85-1.11-2.12-.22-2.72A2.37,2.37,0,0,1,5,79.29,246.86,246.86,0,0,1,32.5,77.71c4.25,0,8.73.16,12.36,2.16,3.18,1.74,5.3,4.68,7.17,7.58,2.15,3.31,4.18,7,3.72,10.78a1.66,1.66,0,0,1-.6,1.28,2.21,2.21,0,0,1-1.38.23c-3.7-.29-7.06-2-10.1-4a63.1,63.1,0,0,1-13.89-12A25.66,25.66,0,0,1,24.4,75c-2.12-6.74.54-13.87,3.26-20.43a2.17,2.17,0,0,1,.94-1.26c.82-.41,1.8.14,2.54.67A146.78,146.78,0,0,1,62.52,84.51c2.37,3.15,4.67,6.55,5,10.35.6,6.29-5.16,12.5-12.1,13.06a25.94,25.94,0,0,1-9.19-1.33,122.9,122.9,0,0,1-12-4A44.12,44.12,0,0,1,25,97.84c-5.64-4-9.23-9.81-12.48-15.57-1.8-3.19-3.56-6.46-4.2-10a11.66,11.66,0,0,1,2.57-10.14C14.24,58.61,20,57.79,25,58.5a7.44,7.44,0,0,1,3.56,1.2c2,1.5,1.91,4.31.94,6.47-1.86,4.2-6.43,7.12-11.32,8.06A27.7,27.7,0,0,1,3.57,72.61C1.91,72,.07,71,0,69.34c0-1.29,1.16-2.41,2.51-2.82a11.08,11.08,0,0,1,4.26-.14,86.85,86.85,0,0,0,10.39,1"/></g></g></svg>