<svg class="shape" xmlns="http://www.w3.org/2000/svg" viewBox="0 0 105.69 105.87"><defs><style>.cls-1{fill:none;}</style></defs><g id="Layer_2" data-name="Layer 2"><g id="Layer_1-2" data-name="Layer 1"><path class="path" d="M39.6,46.3c5.64-5.2,8.09-13,8.77-20.68s-.19-15.32-.06-23C48.33,1.47,48.79-.1,50,0c.86.07,1.28,1.06,1.51,1.89,3,10.85,4.31,22.23,8.74,32.57A11.11,11.11,0,0,0,63,38.76a10.84,10.84,0,0,0,5.3,2,51.32,51.32,0,0,0,25.44-2.61c3.94-1.4,7.78-3.22,11.93-3.74.34,2.85-1.32,5.55-3.11,7.8A47.64,47.64,0,0,1,79.66,57.93c-2.4.75-5.27,1.71-5.88,4.15-.43,1.72.5,3.45,1.36,5a98.58,98.58,0,0,1,9.69,25,30.93,30.93,0,0,1,1,11.06,2.69,2.69,0,0,1-1,2.08c-.95.56-2.14-.1-3-.8C71.63,96.11,68,81.12,56.66,74.34a5.25,5.25,0,0,0-2.45-.9A5.14,5.14,0,0,0,51,74.86C45.86,79,43.3,85.35,40.51,91.27s-6.43,12.06-12.46,14.6C28.17,97,32.54,88.79,34,80.05A17.06,17.06,0,0,0,33.94,73a18,18,0,0,0-3.43-6.24A54.55,54.55,0,0,0,17.05,54.34C11.9,51,6.09,48.46,2,43.9c-1.8-2-3-5.59-.71-7A5.24,5.24,0,0,1,5,36.67l26.15,5a12.66,12.66,0,0,0,5.83.2c1.89-.53,3.59-2.28,3.38-4.23"/></g></g></svg>