<svg class="shape" xmlns="http://www.w3.org/2000/svg" viewBox="0 0 239.85 272.59"><defs><style>.cls-1{fill:none;}</style></defs><g id="Layer_2" data-name="Layer 2"><g id="Layer_1-2" data-name="Layer 1"><path class="path" d="M176.17,32.09a156.45,156.45,0,0,0-5.32-22.56c-.52-1.55-1.32-4.44-.1-6.82,1.32-2.56,4.85-3.26,7.57-2.3s4.8,3.13,6.77,5.23c9.39,10,27.25,26.9,36.9,43.94,12.43,21.94,37.12,96.92-8.82,160.51-41.75,57.79-119.15,73.84-165,55-16.08-6.61-50.89-26.81-48-36a5.55,5.55,0,0,1,3-3c8.48-4.14,17.77,13,39.41,19.62,6.77,2.06,17.76,5.37,25.46,0,8.15-5.65,8.95-17.14,13.24-26.08A33.52,33.52,0,0,1,97.16,204c3.12-1.45,6.56-2.48,9-4.87A10.58,10.58,0,0,0,97.88,181c2,4.33,8.14,5.26,12.33,3s6.73-6.61,8.78-10.9,3.88-8.84,7.32-12.11c4.07-3.87,9.81-5.39,14.47-8.52a5.78,5.78,0,0,0,2.68-3.12c1-3.93-4.77-5.66-8.82-5.47-3.22.16-7.69,2.09-6.44,5.07a4.79,4.79,0,0,0,2.52,2.15c8.77,4.27,20.76,4.17,26.84-3.45,5.68-7.12-1.3-13.9.64-29.29,2.75-21.88,19.15-22.3,20-41.26.65-15-9.24-24.34-8-38a43.32,43.32,0,0,0-1-15,41.51,41.51,0,0,0-2-6"/></g></g></svg>