<svg class="shape" xmlns="http://www.w3.org/2000/svg" viewBox="0 0 104.54 232.46"><defs><style>.cls-1{fill:none;}</style></defs><g id="Layer_2" data-name="Layer 2"><g id="Layer_1-2" data-name="Layer 1"><path class="path" d="M10.51,232.46a440.3,440.3,0,0,0,25-50.34,13.66,13.66,0,0,0,1.46-5.83c-.37-7.37-10.54-9-17.86-8.08s-17.28.47-18.89-6.73c-.68-3.06.66-6.19,2.16-8.95,11-20.15,32-33.14,44-52.69.72-1.17,1.42-2.59.87-3.84-.93-2.13-4.06-1.51-6.23-.67A55.64,55.64,0,0,1,23.26,99c-2.67.11-4,0-4.8-.94C17.35,96.85,16,92.66,29.54,74,51.68,43.43,79.83,20.68,81.61,22.49c.81.84-4.55,6.25-12.07,21.51-1.89,3.84-3.66,7.78-4.15,13.12s.19,13.35,3.81,14.56c1.64.55,3-.76,4.25,0,2.91,1.8-.57,12.33-.91,13.33-8.42,24.94-35.42,53.22-31,59,1.55,2,6.93,1.24,10.81.68,6.85-1,9.76-3.94,11.19-2.68,1.24,1.09.37,4.46-4.88,15.65-1.43,3-2.61,5.47-3.62,7.49-1.95,3.9-3.45,6.74-3.69,7.2-3,5.66-26.07,52-21.81,54.66.69.42,3,.3,15-14,26.11-31.14,56.34-79.79,47-88-5.91-5.2-23.94,9.1-27,5s13.58-18.38,28-48c10.32-21.18,6.91-25.16,6-26-4-3.67-13.41,3.89-17,1-4-3.21.46-18.28,23-57"/></g></g></svg>