<svg class="shape" xmlns="http://www.w3.org/2000/svg" viewBox="0 0 300.3 147.26"><defs><style>.cls-1{fill:none;}</style></defs><g id="Layer_2" data-name="Layer 2"><g id="Layer_1-2" data-name="Layer 1"><path class="path" d="M240.58,42.24c-.06-.8-1.26-14.31-12.74-20.29-9.57-5-22.1-2.58-30.11,6.28A23.49,23.49,0,0,0,155,34.66c3.79-4.82,2.49-11.95-.41-17.35-6.12-11.39-19.4-19-32.17-17S99.07,15.26,101,28.05c-7.53-.71-15.55-.82-22.15,2.86S67.91,43.3,71.41,50c2.68-3.22.69-8.58-3-10.56s-8.23-1.4-12.22-.1a38.44,38.44,0,0,0-23.7,51.08c-3.81-.74-11.26-1.56-18.23,2.3C0,100.58-3.59,123.05,3.58,133.24c7.51,10.66,24.16,4.09,58,4,43.35-.11,79.56,10.5,127,10,5.35-.05,18.67-.37,28.09-9.41,2.05-2,8.32-8.32,7.91-17.34a16.83,16.83,0,0,0-26.33-13.11,28.89,28.89,0,0,0-36.07-28.27c-.45-9.68-11-15.62-20.47-17.47-13-2.51-28.3,0-36.07,10.71a5.59,5.59,0,0,1-2.15,2.14c-1.16.49-2.48.06-3.69-.31A31.67,31.67,0,0,0,59,101.8a21.36,21.36,0,0,0,1.82,11.39c3,6,9.23,9.47,15.39,11.94,27.68,11.08,58.77,7.93,88.35,4.18s60.37-7.78,88.62,1.75c8.36,2.82,16.53,6.84,25.34,7.36s18.8-3.76,21.22-12.25c2-7.08-2-14.86-8.09-19S278,101.81,270.6,101.7c-.24-13.68-11.26-26.38-24.77-28.55,1.84-10-6-20.21-15.84-23s-20.62.86-28.54,7.29C195.53,62.3,195,66,194.89,67a9.33,9.33,0,0,0,1.69,6.2c.57.76,2,2.65,4.13,2.59,1,0,2.48-.54,2.87-1.59.72-1.92-2.51-4.59-3-5-6-5-19.78,1.44-23,3"/></g></g></svg>