<svg class="shape" xmlns="http://www.w3.org/2000/svg" viewBox="0 0 384.24 401.14"><defs><style>.cls-1{fill:none;}</style></defs><g id="Layer_2" data-name="Layer 2"><g id="Layer_1-2" data-name="Layer 1"><path class="path" d="M205,0a68.78,68.78,0,0,1-25.86,18.5c-9,3.57-15.91,3.84-23.14,4.5-26.54,2.43-56.64,5.19-69.32,23.17-.9,1.27-8.7,12.95-5.56,25A16.07,16.07,0,0,0,86.5,80c4.63,3.52,11,3.15,16.83,2.56C144.3,78.4,185.16,73.26,226,68,268,62.69,313,57,354,74c6.76,2.82,27.36,12.06,30,8,1.87-2.86-6-11-8.61-13.74C353.89,46,325.61,39.19,316.07,37.16c-8.55-1.82-14.68-3-59.82-3.09Q210,34,163.82,37c-12.79.81-26.11,2-37.1,8.57-15.66,9.41-21.17,26.56-30.61,54C84.67,132.69,83.13,155.09,74,156c-2.47.24-5.31-1.09-6-3-2.55-7.07,24-23.4,41.91-32A160.61,160.61,0,0,1,135,111c12-3.61,36.24-9.43,78-6,34.35,2.82,40.78,8.64,81,11,11.28.66,30.76,1.38,48.06-10.51a58.81,58.81,0,0,0,10.48-9.25C346.58,116,335.11,143.91,311,168c-20.3,20.25-35.24,23.51-58,37C196.61,238.4,139.5,306.57,151,359c3.49,15.93,15.39,40,33,42,9.48,1.09,19.29-4.34,25-11,9.53-11.08,7.85-25.68,7-33-3.08-26.74-20-31.4-23-57-1.1-9.4.6-16.93,4-32,7.08-31.34,19.78-46.34,12-60-2-3.56-4.39-5.58-8-8-15.5-10.42-36-6.1-57-8-31.84-2.88-53-19-54-17-.67,1.39,9.84,8.53,19.69,13.62,38.62,20,78.5,14.48,112.31,9.38,16.44-2.48,47.5-8.46,70-29,4.21-3.84,8.43-8.47,8.32-14.21C300,140.07,271.41,130.51,258,126c-14-4.7-24.25-8-33-3-7.72,4.38-5.43,10.15-15,18a40.76,40.76,0,0,1-32.46,8.58,24.86,24.86,0,0,1-13.27-6.51c-3.58-3.48-5.62-8.86-4.08-13.6,1.34-4.14,5.14-7.1,9.24-8.55s8.52-1.61,12.86-1.76l14.65-.51c8-.27,17.12-.06,22.31,6,3.74,4.37,4,11.24,2.48,16.19-4.75,15.47-31,24.4-50.73,18.16-4.17-1.32-15.17-4.81-19-14-4-9.7,2.52-19.49-2-23-2.26-1.76-5.95-.89-13,2-19.63,8-28,15-28,15-25.71,21.4-31.45,34-45,43C52.76,189.44,33.69,196.11,0,189"/></g></g></svg>