<svg class="shape" xmlns="http://www.w3.org/2000/svg" viewBox="0 0 380.45 224.12"><defs><style>.cls-1{fill:none;}</style></defs><g id="Layer_2" data-name="Layer 2"><g id="Layer_1-2" data-name="Layer 1"><path class="path" d="M185,140a68.86,68.86,0,0,1-9-31c-.83-24,12.95-29.52,12-53-.78-19.28-10.49-26.08-5-41,2.42-6.59,8-15.45,14-15,6.2.46,9.88,10.83,11,14,.74,2.09,3.82,11.37.1,29.07-3.25,15.46-7.22,16-7.66,26-.55,12.15,5.23,13.52,7.36,26.84,3.65,22.71-10.68,34.2-3.8,44.07,6.73,9.65,24.43,4.39,25,8,.87,5.53-39.89,22.89-55,9-4-3.72-3.77-7.4-9-10-9.34-4.65-22,1.23-28.39,7.5-2.61,2.55-3.27,4.28-3.5,5.59-1.07,6,5.26,11.5,7.25,13.23,3.61,3.15,9.83,7.06,30.13,8.88,16.76,1.51,25.15,2.27,36.41-1,8.27-2.36,18.66-5.34,26.05-14.55,5.57-6.94,4.23-10.94,9.8-14.35,8-4.91,20.51-2.58,26.58,3.76a11.79,11.79,0,0,1,3.08,5c1.6,5.49-1.73,10.78-3.07,12.89-5.38,8.52-29.56,23.87-68,22.33-26.84-1.07-26.07-9-52.7-8.51-5.28.09-16.52.61-29-4.81-3.3-1.44-16.1-7.39-15.69-14.13.27-4.42,6.07-6.61,5.9-13.09-.06-2.4-.89-3.5-.14-5.2,1.52-3.41,7.09-4,9.17-4.23,15-1.7,36.1-6.59,36.08-8.2,0-.78-5-1.5-9.57-1.6-8.27-.18-14.16,1.73-19.14,3.19-22.62,6.62-27.8,4.28-35.57,11.34-5.14,4.67-6,8.52-6.14,9.39-1.46,7.61,4.4,14.38,6.63,17,4.49,5.18,11.47,10.36,37,16.47,11.78,2.83,15.51,3,44.82,8.24,21.16,3.79,19,3.67,22.23,4,15.6,1.72,28.58-.05,53.9-3.65,26.25-3.72,34-6.3,40.05-8.85,11.87-5,23.78-9.94,25.63-19.61,2-10.44-8.57-22.12-17.63-27.65-11.41-7-29.77-9.88-45.19-14.62-1.65-.51-7.19-2.25-7.1-4.13a1.7,1.7,0,0,1,.57-1c1.25-1.4,3.43-1.44,4.54-1.39,7.85.32,46.54,5.89,46.54,5.89,16.78,2.41,26.5,3.81,36.86,3.72,1.29,0,8.72-.11,14.18,4.42,1,.83,4.38,3.62,3.87,6.6a5.16,5.16,0,0,1-1.26,2.32c-3.12,4-6.5,3.92-6.88,5.83-.49,2.45,4.47,5.37,5.32,5.86,4.43,2.6,6.16,1.13,10.07,3.68.71.46,5.59,3.72,5.31,7.77a6.81,6.81,0,0,1-1.18,3c-3.73,6.66-5.91,7.45-5.59,8.82.8,3.37,15.08,2.53,21.59,7.87a4.11,4.11,0,0,1,1.6,2.42c.53,3.21-4.43,6.41-5.38,7-6.84,4.42-15.11,3.42-17,3.22-5.71-.62-19.46,2.14-47,7.67-27.09,5.45-23.14,9.88-40.66,12.11-25.44,3.24-26.76-7-62-6.73-16.31.13-23.36,2.37-42.36.52-9.62-.93-14.14-2.12-26.33-4.42-35.76-6.75-35.11-3.73-61.37-9.27-39.78-8.41-49.3-17.05-52.08-20.24a20.85,20.85,0,0,0-6.4-4.94c-6.23-3.1-14.28-3-18.45.7A3.43,3.43,0,0,0,0,181.28c-.28,2.82,4.52,6.66,9.18,6.45,5.47-.25,8.41-6,8.71-6.6a16.55,16.55,0,0,0,1.29-9C18.57,161,37.8,146.86,58,139c13.27-5.16,21.89-5.62,41-8,14.5-1.81,35.59-4.79,61.51-9.75"/></g></g></svg>