<svg class="shape" xmlns="http://www.w3.org/2000/svg" viewBox="0 0 1035.59 691.2"><defs><style>.cls-1{fill:none;}</style></defs><g id="Layer_2" data-name="Layer 2"><g id="Layer_1-2" data-name="Layer 1"><path class="path" d="M406.36,685.31c-118.88-23.53-241.51-9.36-362.69-11-10.53-.14-21.55-.53-30.74-5.68S-2.79,652,1.19,642.23C7.87,625.84,34.92,628.54,44,613.37c7.39-12.3-1.45-27.49-8.38-40A157.75,157.75,0,0,1,20.6,461.07C30.79,419,58,382.72,68.89,340.84c24-92.51-35.2-193.39-4.76-284,2.36-7,8.58-15.34,15.28-12.19,4,1.87,5.2,6.84,5.51,11.2,2.24,32-20.78,63.4-12.35,94.31,9.53,35,52.37,47.5,88.53,49.92s77.34,2.69,101.46,29.74c-43.08,12.49-88.07-12.32-132.92-11.61-12.28.2-25,2.52-35,9.67C63.24,250.39,77.25,300,64.06,336.37c-8.42,23.19-28,40.29-41.34,61.05s-18.91,51.34-.69,68c17.24,15.74,44.38,9.6,66.62,2.53l117.19-37.3c12.6-4,30.44-5.74,35.17,6.62A747.79,747.79,0,0,0,27.17,481.65c-2.5.92-5.11,1.93-6.79,4-3.81,4.68-.29,12.38,5.3,14.66s12,.65,17.57-1.64c33.56-13.81,52.78-48.2,74.49-77.28a342.12,342.12,0,0,1,111.24-96c-5.5,13-24.39,8.44-38.45,8.87-22.81.7-40.05,19.67-57,35s-42,28.5-61.45,16.55c-21.36-13.14-18.18-44.49-13.37-69.1A869.5,869.5,0,0,0,72.41,85.73C70.5,60.2,70.27,28.85,92.39,16c7.39-4.31,16.17-5.58,24.73-5.89,30.49-1.09,60.1,9,89.93,15.34a379.87,379.87,0,0,0,151.22,1.47C409,17,458.89-3.29,510.45.45c33.84,2.46,66.17,15.23,99.9,18.93C653.1,24.07,695.91,14,738.71,9.82c74.22-7.33,148.93,2.83,222.82,13,4.79.66,10.06,1.57,13.09,5.34,7.57,9.43-5.89,20.81-15.34,28.35-18.53,14.78-26,39.89-26.08,63.59s6.14,46.9,10.11,70.26c17.41,102.55-8.83,208.38-52.31,302.87-11.86,25.79-25.28,52.08-25.79,80.46s16.78,59.52,44.85,63.75c15.22-31.91,13.17-69.72,27.08-102.22,9.92-23.17,27.34-42.22,40.34-63.81,25.64-42.59,33.2-93.34,39.16-142.7q11.49-95.22,17.64-191c2.51-39.19,3.6-81.38-17.81-114.3-7.74-11.9-22.81-22.82-35.15-15.79-5,2.85-8.16,8.06-10.9,13.14a247.14,247.14,0,0,0-28.92,99.31c-2.81,39.13,3.67,79.22-6,117.24S891.74,312,853.05,305.54l86.85-51.69c2.35-1.4,5.05-2.85,7.68-2.09,5,1.47,4.64,8.63,3.19,13.64l-36,124.79c-13.33,46.24-27.48,94.05-58.82,130.57-19.51,22.74-44.62,39.8-67.66,59,9.14,8.28,21.42-5.72,26.42-17a243.06,243.06,0,0,1,64-85.85c.44,35.13-24.32,70-13,103.24,6.13,18,21.69,31,31.91,47s13.19,40.77-2.58,51.43c-7.09,4.8-16.13,5.35-24.69,5.76L724.22,691.2"/></g></g></svg>