<svg class="shape" xmlns="http://www.w3.org/2000/svg" viewBox="0 0 429.95 528.99"><defs><style>.cls-1{fill:none;}</style></defs><g id="Layer_2" data-name="Layer 2"><g id="Layer_1-2" data-name="Layer 1"><path class="path" d="M333.19,129.71A531.73,531.73,0,0,0,403,122.28c24.54-4.27,26.78-6.44,27-8.18.84-7.23-31.38-23.22-63.14-17.72-25.12,4.35-40.41,20.5-46.16,26.76-15.18,16.51-23.24,38.84-19.18,41.91,2.8,2.12,8.71-7,24.36-12.19,3.37-1.12,28.18-9.06,42.09,3.33,5.83,5.19,8.42,12.75,9.18,15,3.83,11.21.57,18.58,5.22,21.57,3.51,2.26,9.69.84,11.86-2.53,3.93-6.09-5.73-17.81-6.32-18.52-16.37-19.48-58.9-21.3-75.32-2.21-1.24,1.44-7.63,8.88-5.54,15.5,3.81,12,32.47,11.17,35.45,11.08,7.18-.21,29.27-.86,32.12-11.08,2.21-7.92-8.12-18.16-17.27-22.39-12.48-5.75-25.79-.37-36,5.48-6.54,3.76-13,12.24-8.11,18,.39.46,1.36,2.11,6.56,3.27,3.81.85,19.84,4.42,26-5.41,2.85-4.58,3.63-12.17,0-15.51-6.6-6.07-27.42,2.26-31,13.29a20.06,20.06,0,0,0,.11,13.24,15.85,15.85,0,0,0,.87,1.68c1.68,2.86,5.22,6.7,17.19,15.79l24.17,18.36c5,3.78,10.14,7.8,12.69,13.5s2.07,12.41,1.28,18.69a256.38,256.38,0,0,1-54.51,128.21c-14.1,17.49-30.63,33.28-41.68,52.85-7.73,13.7-12.52,28.83-19.29,43s-16.07,28-29.87,35.51c-18.15,9.92-40.77,7.25-60.14,0-9.25-3.47-18.69-8.45-23.31-17.18-6.34-12-1.56-26.6,3.59-39.15,5.39-13.14,12.19-27.28,25.19-33,21-9.3,47.06,8.1,67.8-1.79,2.31-1.1,4.47-2.42,4.89-4.54,1.59-8-23.19-19.21-43.06-28.05a484.14,484.14,0,0,0-53.17-19.94,270.78,270.78,0,0,0,24.38,19.76s28.07,20.17,74.39,33.66c5.61,1.64,13.08,3.61,19.45-.13,6.59-3.87,11.2-13.39,9.15-21.17-3.2-12.19-20.15-10.21-24.9-24-2.68-7.76-.75-18.37,5-22.51a22.52,22.52,0,0,1,6.76-2.92,87.91,87.91,0,0,1,10.67-.88c9.47-.44,17.37,8.28,19.37,17.54.88,4,3.39,9.55.26,14-2.79,4-8.69,5.67-14.91,4.34a91.71,91.71,0,0,0-35.44-18.83c-8-2.12-9.15-1.17-39.88-2.22-33-1.12-47-2.74-62.44-9.23a111.72,111.72,0,0,1-10.19-4.9c2.94-2.94,7.72-2.5,11.85-2a199.54,199.54,0,0,0,81.88-6.79c9.18-2.76,20.44-5.73,27.31,1,1.29,1.25,2.38,2.84,4.06,3.49a7.37,7.37,0,0,0,4.48-.05,20.91,20.91,0,0,0,3.64-39.1c-4.73-2.25-7.23-2-14.69-3.31-10.14-1.71-22.51-3.81-30.39-12.2-8.36-8.9-9.74-22.81-6.65-33.23,1-3.24,3.15-10.24,10-15.5a29.25,29.25,0,0,1,19.94-5.54c12,1.34,19.6,10.68,23.65,15.68,2.9,3.58,2.77,5.33,17.92,29,1.89,2.94,4,5.93,7.1,7.56,7,3.69,15.54-1,21.14-6.62a63.9,63.9,0,0,0,16.14-27.3c-6.2,1.88-9.7,8.19-13.24,13.61a86,86,0,0,1-25.11,25.08c-2.62,1.7-5.58,3.31-8.68,3-2.41-.25-4.51-1.64-6.69-2.68-10.83-5.15-23.58-1.78-35.54-2.57-3.45-.23-8-3-6.19-5.92a4.93,4.93,0,0,1,2.28-1.67c10.73-4.86,23.63-3.8,33.81-9.73a6.7,6.7,0,0,0,2.6-2.29c2.24-3.89-3.29-7.86-7.78-8-9.5-.36-18.09,5.06-26.43,9.62s-18.24,8.49-27.11,5.07a11.21,11.21,0,0,1-4.83-4c-10-12.15,2.95-37.72,3.81-39.38l.3-.74c-.24-5.56-8.17-6.51-13.56-5.12-29.76,7.68-54.68,32.52-85.41,32.75-25.4.18-47.56-16.71-65.7-34.49-13.26-13-25.75-27.19-33.95-43.86S-2.72,158.93,2.31,141s19.71-33.52,38-36.71c17.52-3,35.07,5.16,49.67,15.33s27.83,22.6,44,29.91a81.35,81.35,0,0,0,75.5-5.28,167,167,0,0,1-48-7.94c-2.71-.87-6-3.08-4.95-5.72A33.32,33.32,0,0,0,175.79,116c1.34-2.22,2.44-4.75,2.21-7.33-.44-4.85-5.25-8-9.77-9.84a55.46,55.46,0,0,0-20.59-4c-4.81,0-10.28,1-12.82,5.1-1.58,2.54-1.65,5.75-1.14,8.7,1.95,11.28,12.41,20.48,23.84,21,7.7.33,16.36-4.24,17.33-11.88,1.22-9.55-9.36-16.08-18.58-18.88a127.22,127.22,0,0,0-47.51-5c3.81-5.23,11.45-5.44,17.87-4.68a134.33,134.33,0,0,1,68.08,28.73c7.64,6.18,14.77,13.31,23.81,17.15A56.27,56.27,0,0,0,181,65.47c-23.76-7.28-50.07,1.63-74-4.93-3.52-1-7.22-2.48-9.08-5.62-3.54-6,1.69-13.43,7.3-17.56a59.39,59.39,0,0,1,37.24-11.43c14,.56,27.33,6.08,40.28,11.52C212.64,50,243.64,63.34,265.28,87.57c2,2.29,4.21,4.8,7.2,5.46,3.77.84,7.67-1.72,9.44-5.14s1.82-7.48,1.38-11.31c-1.7-14.67-10-28-20.8-38.07s-24.07-17.12-37.59-23.06C204.43,6.44,182.51-.32,160.14,0c-29.15.44-50,17-60,25.4"/></g></g></svg>