<svg class="shape" xmlns="http://www.w3.org/2000/svg" viewBox="0 0 502.44 168.28"><defs></defs><g id="Layer_2" data-name="Layer 2"><g id="Layer_1-2" data-name="Layer 1"><path class="path" d="M0,166.52c60.87-13.29,94.86-37,114.88-57.11C134.06,90.15,155,72.64,173.3,52.53c10.31-11.33,20.68-23.76,37-29,6.93-2.23,12.91-2.51,20.64-8,7.27-5.19,10.54-11.83,17.21-11.07,3.34.37,6.23,2.56,9.54,3.13C265.6,8.93,272.22,1,280.19.11c6.71-.76,6.8,2.45,20.31,6,18.91,5,22.57-.55,31.8,5.41,7.16,4.62,8.07,10,17,13,6.31,2.15,7.23-.05,11,2,10.89,5.91,8.7,27.24,15,28,1.9.23,2.86-1.62,5-1,3.39,1,4.47,6.62,5,9,3.79,17.08,14.61,26.77,12,29-1.66,1.42-5.06-3.34-17-8-7.88-3.07-11.84-3.12-14-7-2-3.62.24-5.72-2-10-2.44-4.65-5.89-3.65-9-8-4.37-6.13-.29-12-4-15-3.89-3.15-9.07,2.69-15,0-7.17-3.25-5.8-14.6-12-16-3.58-.81-5,2.76-9,2-6.43-1.22-8.27-11.51-11-11S303.17,29.2,299,30.87c-2.11.85-4.37-1-11.77-6.05-7-4.71-10.42-7.12-11.45-7.48-15.4-5.43-29.45,11.49-45.53,14.38-4.84.87-9.84.43-14.7,1.2C196,36,185.43,53.46,182.65,57.63c-3.62,5.43-7.5,11.26-8.35,19.9-1.29,13.17,5.43,23.18,8,27,10.86,16.17,28.41,21.45,35,23,19.19,4.53,23.09-4.19,51-3,22,.94,38.32,7.14,39,5,.44-1.38-6.13-4.62-11-7-19.77-9.66-26.14-8.11-35-13.52-10.15-6.18-20.58-19.65-20-35.48.76-20.32,19.21-31.91,21-33-1.31,1.64-9.46,12.26-7,27a35.19,35.19,0,0,0,15,23,32.12,32.12,0,0,1-1-23,31.24,31.24,0,0,1,10-14,66.53,66.53,0,0,0,1,20c8.68,42.15,56.7,61.22,64,64-8.53-4.21-42.24-22-48-55-2-11.21-2.31-33.46,9-39,5.66-2.77,15.92-2.18,21,4a14.33,14.33,0,0,1,3,7,28.63,28.63,0,0,1,14,3c10.75,5.6,8.35,14.27,20,23,3.4,2.55,3.17,1.48,21,12,5.93,3.5,8.28,5,8,6-.37,1.34-5.35,1.88-24-1a17.93,17.93,0,0,0-12-12c-6.38-14.35-20.25-20.54-29-17-10.29,4.17-12,21.2-8,32,3.94,10.61,13.53,15.58,24,21a99.87,99.87,0,0,0,33,10c20.27,2.64,28.72-2,46,4a71.77,71.77,0,0,1,13,6c-3.94-.4-10.24-.92-18-1-23.75-.26-31,3.89-49,2-13.26-1.39-11.58-3.89-24-5-18.65-1.67-28.13,3.44-40,5-23.53,3.08-53.16-8.26-69.47-30.19-20.83-28-12-62.59-10.53-67.81a98.91,98.91,0,0,0-29,17c-17.6,15-22.36,30.25-31,43-9.54,14.08-27.9,31.12-66.92,41.29a100.87,100.87,0,0,1,26.92-3.29c32.13.47,37,16.41,65,21,29,4.76,35.89-10.36,93-12,8.14-.23,14.79-.12,19,0-1.27,1-6.7,5.59-5.7,9.74,1.19,4.93,10.66,6.11,14.64,6.61,15.23,1.89,26.35-3.22,43.46-9.39,0,0,55.54-20,67.6-9a12.42,12.42,0,0,0,5,3,11.4,11.4,0,0,0,2.51.47c26.63,2.13,38.38-1.13,38.38-1.13a77.75,77.75,0,0,0,35.25-21.55"/></g></g></svg>