<svg class="shape" xmlns="http://www.w3.org/2000/svg" viewBox="0 0 285.49 298.57"><defs><style>.cls-1{fill:none;}</style></defs><g id="Layer_2" data-name="Layer 2"><g id="Layer_1-2" data-name="Layer 1"><path class="path" d="M159.22,81.48c-4.7-3.39-10.08-8.57-10.86-15.53-.42-3.77.84-4.21,1.34-9.37.81-8.51-3.15-16.64-5.08-25-1.08-4.62-1.48-9.69.6-13.95,1.83-3.75,5.32-6.37,8.72-8.78a11.12,11.12,0,0,0,3.71-3.6c.8-1.54.67-3.73-.77-4.7A4.92,4.92,0,0,0,153.8,0a26.6,26.6,0,0,0-23.07,17.79c-1.74,5.3-1.73,11-3,16.46-1.46,6.44-4.63,12.44-5.69,18.95-1.13,6.9.17,14-1,20.91a3.4,3.4,0,0,1-1.17,2.36c-.94.62-2.18.24-3.21-.2a41.22,41.22,0,0,1-22-22.61C91.37,45.25,91,36,90,27c-.15-1.47-.77-3.38-2.26-3.33-1,0-1.86,1.54-2.23,2.25-2.59,5-5.27,19.46-6.21,24.73-.29,8.73,3.5,17,5.77,25.42s2.68,18.42-3.21,24.86a11.06,11.06,0,0,1-5.52,3.46c-3.24.76-6.58-.45-9.69-1.65C57.15,99.05,47.35,95,40.31,87.6c-5.79-6.11-9.22-14-13.56-21.23-2.7.91-4.22,4-4.23,6.81s1.18,5.57,2.4,8.15c2.41,5.12,5.12,10.27,9.37,14,2.67,2.34,5.84,4,8.79,6a54.37,54.37,0,0,1,14,13.36c3.18,4.36,5.75,9.37,6.07,14.76s-2,11.16-6.67,13.84c-5.37,3.08-12,1.49-18.16.49-9.31-1.53-19.4-1.34-27.5,3.51s-13.25,15.43-9.55,24.1c3.15,0,4.43-3.87,5.89-6.66,2.06-4,6-6.66,10.27-8.07s8.75-1.68,13.22-1.77c6-.14,12.09,0,17.68,2.13,7.36,2.77,13.06,8.61,18.51,14.28,1.47,1.52,3.82,3.41,4.71,6.7a12,12,0,0,1-.46,7.56c-4.28,9.52-28.73.6-37.38,11.91-3.29,4.3.32,7.14-4.8,17.86-2.67,5.59-9.35,9.78-8.69,15.94,6.63,1.32,12.28-4.42,17.24-9,7.23-6.68,16-11.94,25.7-13.72s20.28.23,27.81,6.56a18.3,18.3,0,0,1,5.26,6.69,20.24,20.24,0,0,1,.94,10.81,39.77,39.77,0,0,1-20.6,29.15c-7.07,3.69-15.63,5.52-20.47,11.85,6,.6,11.87-2.13,17.32-4.8,11.87-5.8,24.2-12,32.09-22.57,6.93-9.32,9.86-21.4,18-29.7a3.7,3.7,0,0,1,2.7-1.43c2.22.18,2.35,3.36,1.93,5.55a51.74,51.74,0,0,0,1.26,24.29c3,10.08,9,21.19,3.75,30.29-4.16,7.18-14.09,10-17.07,17.7-.83,2.14-.4,5.39,1.89,5.66a4.63,4.63,0,0,0,3-1.16l25.27-17.72c2.08-1.46,4.24-3,5.39-5.28,1.49-3,.93-6.53.29-9.81-2.92-15.09-6.5-31-1.46-45.51a4.87,4.87,0,0,1,2-3c1.58-.8,3.59.28,4.44,1.84a11.47,11.47,0,0,1,.95,5.18c.31,8,2.16,16.48,7.67,22.35,4.58,4.88,11.09,7.37,16.55,11.25s10.17,10.45,8.26,16.87c-1.77,5.94-8.84,10.52-7.35,16.54,10.05,2.25,20.29-5.76,23.41-15.57s.58-20.58-3.63-30-10-18-14-27.51c-1.25-3-2.33-6.25-1.76-9.46s3.3-6.23,6.55-6c2.66.15,4.72,2.26,6.64,4.1a55.68,55.68,0,0,0,29.48,14.63c4.4.7,9,.88,13.09,2.54s7.89,5.27,8.06,9.72c.11,3-1.37,5.79-1.48,8.76s2.34,6.48,5.15,5.54c1.58-.52,2.44-2.2,3-3.76,6.24-16.87-2.32-36.57-16.44-47.72-7.24-5.72-15.76-9.68-22.81-15.63-1.71-1.45-3.46-3.34-3.27-5.57.23-2.57,2.91-4.15,5.35-5,11.47-3.94,24.53-1.23,35.79-5.72A58.62,58.62,0,0,0,267.32,157l18.17-12.4c-2.9-2.53-7.31-.45-10.75,1.3-20.19,10.22-44.38,4-54.35-8.07-.38-.47-6.46-8.07-4.51-16,2.09-8.48,11-7.36,21.51-17.65,7.32-7.14,6-20.41,19.77-36.95,2.71-3.24,6.33-7.32,4.33-11.05-4.86.5-9,3.86-12,7.72s-5.18,8.31-8.08,12.26c-5.48,7.48-13.8,13.07-23,14.23s-19.11-2.51-24.52-10c-4.44-6.18-5.56-14.2-5-21.79.23-3.13.75-6.36,2.47-9s4.91-4.51,8-3.87c3.92.81,7.29,5.37,11,3.82.94-5.47-5.27-9.61-10.8-10.07a22.92,22.92,0,0,0-19.14,8c-3,3.65-4.84,8.15-7,12.4-4.69,9.44-8.72,15.28-12.5,15-1-.08-3.85-.77-6.69-8.4"/></g></g></svg>